<svg preserveAspectRatio="none" overflow="visible" style="display: block;" width="97.0001" height="89.4375" viewBox="0 0 97.0001 89.4375" fill="none" xmlns="http://www.w3.org/2000/svg">
<g id="Group 62">
<path id="Vector" d="M44.6635 44.9127C44.6635 31.5079 44.6397 18.0971 44.6992 4.69233C44.7052 3.58223 45.0031 2.34678 45.5632 1.40379C46.3378 0.090768 48.2444 -0.291197 49.7101 0.216108C51.152 0.723413 52.1709 2.07822 52.1947 3.77918C52.2364 7.18111 52.2007 10.589 52.2007 13.9969C52.1947 37.6731 52.1947 61.3494 52.1888 85.0256C52.1888 87.783 50.9375 89.3049 48.6555 89.4302C46.5523 89.5496 44.9137 88.1948 44.7469 86.0939C44.6397 84.769 44.6695 83.4381 44.6695 82.1071C44.6635 69.705 44.6635 57.3088 44.6635 44.9127Z" fill="#FDBF42"/>
<path id="Vector_2" d="M37.3406 44.9101C37.3406 53.2657 37.3466 61.6153 37.3347 69.971C37.3347 72.215 36.3456 73.7131 34.6237 74.1607C32.0318 74.8351 29.8213 73.17 29.7796 70.3887C29.72 66.2945 29.7677 62.1943 29.7617 58.1C29.7558 45.5427 29.7438 32.9854 29.7438 20.4281C29.7438 19.7418 29.7438 19.0315 29.8928 18.3691C30.2741 16.6502 31.8709 15.4744 33.6405 15.5222C35.434 15.564 36.9235 16.7875 37.1857 18.5899C37.3466 19.688 37.3228 20.8161 37.3287 21.9321C37.3466 29.5895 37.3406 37.2468 37.3406 44.9101Z" fill="#FDBF42"/>
<path id="Vector_3" d="M67.1438 44.9269C67.1438 53.3303 67.1498 61.7336 67.1379 70.137C67.1319 72.5004 65.8688 74.0522 63.8251 74.2909C61.6622 74.5416 59.9582 73.2107 59.6841 71.0501C59.6364 70.6801 59.6364 70.3101 59.6364 69.9341C59.6304 53.2348 59.6126 36.5295 59.6245 19.8302C59.6245 16.6073 62.1806 14.6975 64.8678 15.8672C66.542 16.5954 67.1438 17.9502 67.1379 19.7168C67.12 28.1202 67.1319 36.5235 67.1319 44.9269C67.1379 44.9269 67.1438 44.9269 67.1438 44.9269Z" fill="#FDBF42"/>
<path id="Vector_4" d="M14.8413 45.629C14.8413 40.6813 14.8294 35.7335 14.8413 30.7918C14.8473 28.2194 16.3011 26.5722 18.5533 26.5245C20.7698 26.4767 22.3905 28.1419 22.3964 30.6963C22.4322 40.7469 22.4322 50.8035 22.4024 60.8541C22.3964 63.0922 20.7043 64.7932 18.6487 64.8051C16.4441 64.8171 14.8533 63.1817 14.8473 60.7885C14.8235 55.7333 14.8413 50.6782 14.8413 45.629Z" fill="#FDBF42"/>
<path id="Vector_5" d="M74.5853 45.5856C74.5853 40.6379 74.5674 35.6901 74.5913 30.7424C74.6032 28.3849 75.8723 26.8332 77.916 26.5586C80.2099 26.2543 82.0629 27.9552 82.0808 30.4798C82.1106 34.7889 82.0868 39.098 82.0868 43.4071C82.0868 49.2083 82.0868 55.0035 82.0927 60.8047C82.0927 62.5236 81.3599 63.8008 79.7928 64.4872C78.339 65.1258 76.8077 64.899 75.8485 63.7173C75.1513 62.8578 74.6985 61.5508 74.6687 60.4287C74.5436 55.487 74.6151 50.5333 74.6151 45.5856C74.6092 45.5856 74.5972 45.5856 74.5853 45.5856Z" fill="#FDBF42"/>
<path id="Vector_6" d="M96.9885 45.6737C96.9885 47.2135 97.0183 48.7534 96.9825 50.2872C96.9289 52.6148 95.4096 54.1129 93.1991 54.089C91.066 54.0651 89.5645 52.585 89.5228 50.329C89.4692 47.2553 89.4632 44.1757 89.499 41.102C89.5228 38.8042 91.1077 37.1927 93.2229 37.1808C95.3917 37.1748 96.8932 38.7027 96.9587 41.0602C97.0004 42.6 96.9647 44.1339 96.9647 45.6737C96.9706 45.6737 96.9766 45.6737 96.9885 45.6737Z" fill="#FDBF42"/>
<path id="Vector_7" d="M7.54262 45.736C7.54262 47.3295 7.59029 48.929 7.53071 50.5166C7.44729 52.6831 5.83856 54.1632 3.69954 54.1334C1.6201 54.1035 0.0888311 52.6712 0.0471233 50.5166C-0.0184177 47.3295 -0.0184184 44.1365 0.0649973 40.9494C0.12458 38.6994 1.70948 37.2073 3.80679 37.2192C5.98751 37.2312 7.489 38.777 7.53667 41.1106C7.56646 42.6504 7.54262 44.1902 7.54262 45.736C7.53667 45.736 7.53667 45.736 7.54262 45.736Z" fill="#FDBF42"/>
</g>
</svg>
